<?xml version="1.0" encoding="utf-8"?>
<svg version="1.1" id="Layer_1" xmlns="http://www.w3.org/2000/svg" xmlns:xlink="http://www.w3.org/1999/xlink" x="0px" y="0px"
	 viewBox="0 0 1174.876 1658.241" enable-background="new 0 0 1174.876 1658.241" xml:space="preserve">
<g>
	<circle fill="#030303" cx="1117.505" cy="623.591" r="21.61"/>
	<path fill="#030303" d="M848.436,898.088c-0.224-2.579,0.224-5.279-0.774-7.729c-1.121-9.06-4.381-23.576-11.347-28.989
		c-3.783-2.94,1.106-27.513-4.838-34.203c-1.57-1.768-4.173-2.356-5.845-4.185c-6.013-6.58,3.638-8.668,3.733-14.195
		c0.158-9.133-5.307-17.341-6.216-26.471c-0.809-1.897-1.325-9.466-2.201-11.495c-0.215-2.287,0.138-4.694-0.808-6.844
		c-0.215-1.737-0.095-3.559-0.894-5.15c-2.555-28.714-15.463-57.687-27.905-83.321c-29.807-56.539-27.596-38.899-46.11-71.346
		c-0.043-0.413-0.129-1.229-0.163-1.642c-1.73-2.923-3.964-7.707-4.419-8.735c-0.637-1.154-16.885-25.732-16.885-25.732
		c-0.011-0.048-1.106-4.16-2.803-11.968c-17.276-31.097-13.782-16.324-24.829-32.705c0-6.533,0.068-3.488,0.989-7.72
		c4.977-8.888,3.762-8.318,5.752-13.008c0.138-1.295,0.164-2.428,1.719-6.912c0.48-7.589,3.029-13.731,3.68-18.777
		c1.081-1.985,2.032-3.392,2.553-6.895c0.524-0.868,1.057-1.737,1.599-2.588c0.026-0.43,0.069-1.272,0.095-1.694
		c5.945-9.78,26.693-113.308-0.774-180.683c-0.155-2.493-0.12-4.986-0.241-7.471c-1.014-1.375-0.997-3.181-0.034-4.574
		c0.188-4.4,0.147-8.251,3.577-9.302c-0.163-8.851,0.026-3.484-0.954-8.606c-2.478-4.348-3.307-9.479-4.032-11.306
		c-0.129-1.35-0.215-2.691-0.327-4.032c-1.057-1.848-0.696-4.024-0.585-6.027c0.825-1.333,0.714-2.932,0.894-4.419
		c0.464-1.023,6.305-11.506,6.62-12.062c1.957-9.003,0.543-7.25,0.972-12.922c-2.072-3.748-6.018-5.967-8.004-9.784
		c-4.9-8.896-14.072-13.32-23.101-16.972c-14.182-5.737-21.717-9.013-30.119-10.818c-13.269-2.851-27.862,3.736-30.949-4.562
		c-0.799-2.149-2.562-3.611-4.514-4.686c-1.487,0.009-2.975-0.009-4.445-0.034c-2.184,2.089-3.396,5.373-6.706,5.889
		c-2.01-1.189-11.137-0.932-17.264,0.241c-0.868,0.533-1.728,1.075-2.579,1.625c-1.969,0.026-3.929,0.017-5.872-0.103
		c0,0-35.316-8.623-35.318-8.623c-5.08-2.134-16.348-4.017-18.863-4.393c-2.528-1.221-5.511,0.017-7.996-1.298
		c-5.081-0.615-37.491-9.129-40.348-10.369c-0.817-0.086-1.633-0.172-2.433-0.258c-0.861-0.37-149.855-45.358-158.201-46.435
		c-5.974-2.467-129.023-35.599-133.26-36.1c-1.877-0.789-20.177-5.77-22.345-6.027c-2.808-1.219-65.164-18.247-85.975-22.265
		c-6.538-1.263-12.583,1.758-17.478,6.311C46.18,50.311,25.134,74.477,41.973,87.677c11.482,9,24.898,8.312,31.957-5.404
		c1.273-2.601,1.353-2.677,2.236-4.291c0.304-1.75,3.672-11.958,5.167-14.581c0.91-5.344,6.707-16.682,11.649-21.098
		c4.737,0.395,129.219,33.78,132.52,35.163c6.697,0.864,53.807,14.897,60.044,15.759c0,0,155.619,45.549,155.622,45.549
		c4.463,1.89,9.393,2.985,14.032,4.342c110.48,32.313,40.087,16.126,133.523,43.445c7.825,2.288,6.525,0.31,8.445,4.151
		c0.052,0.413,0.138,1.238,0.181,1.642c0.49,0.86,0.98,1.728,1.47,2.588c0.346,1.384,3.848,13.319,6.121,17.238
		c0.026,0.421,0.086,1.264,0.12,1.694c0.533,0.851,1.075,1.711,1.616,2.579c0.034,0.421,0.095,1.255,0.129,1.676
		c14.096,24.904,25.286,24.053,31.733,34.398c0.454,7.613-1.396,7.391,1.969,17.969c1.851,3.72-1.758,10.602-3.576,13.919
		c-0.103,0.799-0.198,1.608-0.284,2.416c-1.083,2.476-1.161,5.545,0.06,7.987c1.089,2.179,0.179,6.968,0.544,9.548
		c1.776,12.564,6.759,48.226,3.746,68.422c-1.324,2.201-0.181,4.952-1.462,7.162c-0.138,2.192-0.146,4.393-0.267,6.594
		c-1.032,1.84-0.696,4.006-0.885,6.027c0,0-4.39,25.372-7.445,32.954c-0.45,6.275-1.34,11.547-4.35,17.075
		c-0.043,0.413-0.129,1.238-0.172,1.651c-1.238,2.846-3.121,5.296-5.434,7.351c-2.923,0.129-6.035-0.576-8.778,0.671
		c-4.327,0.485-2.153,0.095-6.31,1.333c-0.026-3.637-0.12-7.273,0.095-10.91c0.525-1.05,2.071-12.162-1.1-26.747
		c-0.791-1.462-1.565-2.923-2.373-4.359c-0.043-0.413-0.138-1.229-0.18-1.642c-0.662-0.86-1.29-1.719-1.883-2.605
		c-4.935-9.268-12.862-16.559-17.736-25.852c-0.017-0.456-0.052-1.358-0.069-1.814c1.341-0.567,2.674-1.195,3.938-1.952
		c8.42-0.894,0.762,1.645,18.837-1.891c3.576-2.086,6.141-2.217,8.185-6.319c-0.017-2.029-0.017-4.041,0-6.053
		c-1.513-2.674-3.697-4.926-6.405-6.388c-1.805-0.06-3.74,0.181-5.348-0.808c-1.634-0.095-3.25-0.095-4.866,0
		c-2.442,1.496-5.528,0.06-8.013,1.427c-10.01,0.942-10.052,2.273-14.435,2.76c-5.06-3.457-17.1-17.131-31.931-24.821
		c-0.395-0.06-1.195-0.181-1.591-0.241c-5.013-2.156-4.225-1.37-10.24-1.694c-1.98-1.163-11.337-1.106-13.171,0
		c-11.809,1.209-11.594,0.147-38.015,10.674c-6.414,2.556-19.512,24.188-21.496,27.764c-0.044,0.414-0.121,1.239-0.164,1.652
		c-0.533,0.86-1.057,1.719-1.573,2.588c-0.982,5.129-2.051,5.343-2.82,15.338c-1.056,1.992-1.08,10.334,0,12.303
		c0.181,2.003-0.095,4.135,0.817,6.001c0.472,4.492,1.861,11.727,4.428,16.241c0.034,0.413,0.095,1.255,0.12,1.668
		c0.533,0.868,1.075,1.737,1.625,2.605c0.026,0.413,0.086,1.238,0.12,1.651c3.415,6.147,3.836,7.864,6.706,12.999
		c0.052,0.404,0.138,1.221,0.189,1.633c0.808,1.444,1.582,2.906,2.373,4.368c0.778,3.581,0.818,1.667,1.066,6.053
		c7.372,13.008,16.212,4.78,37.631,42.961c1.063,1.894,1.097,6.497,1.507,8.719c4.152,22.492-9.644,30.362-11.884,53.888
		c-0.96,2.037-1.839,11.179-3.121,14.916c-0.156,19.655-0.203,12.719,1.694,21.253c6.156,11.149,1.511,6.098,15.596,24.288
		c5.34,6.119,21.931,22.024,26.368,30.839c0.112,3.645-0.077,7.308,0.189,10.962c0.516,1.135,0.688,2.39,0.86,3.637
		c4.69,9.597,15.334,7.69,18.717,15.415c2.194,5.011,2.019,10.546,5.03,15.457c1.308,2.134,3.64,3.756,4.667,5.917
		c2.397,5.046-1.925,13.249-0.162,16.523c2.633,4.892,14.823,13.479,16.679,16.352c2.828,4.379,7.547,7.665,10.724,11.858
		c14.343,18.929,12.031,23.584,12.094,31.508c-0.43,4.582,4.015,7.755,3.766,12.354c0.731,1.754,0.825,3.723-0.112,5.434
		c-0.301,3.92-0.215,7.858-0.052,11.787c1.685,4.027,3.631,15.582,14.917,21.287c2.622,1.169,4.462,3.43,6.491,5.382
		c-0.017,1.444-0.043,2.897-0.069,4.359c-4.303,6.925-7.469,3.878-17.41,30.942c-6.835,19.651-8.15,33.702-8.15,33.702
		c-0.14,2.702-0.763,26.365,0.499,29.214c0,0.001,4.419,88.441,4.419,88.442c-3.516,4.694-7.273,9.328-9.646,14.745
		c-3.108,10.71-0.29,25.707-2.141,30.117c-0.301,4.264,0.232,8.606-0.662,12.836c-1.461,12.102-9.451,23.6-10.927,35.103
		c-10.033,28.801-26.368,54.869-36.96,83.446c-2.166,6.227,2.12,9.695-5.124,18.33c-9.917,10.658-17.646,24.176-23.729,37.167
		c-32.975,60.087-48.581,68.709-61.196,98.724c-3.516,7.609-4.118,16.507-9.638,23.153c-9.946,6.171-8.563,14.429-14.289,17.651
		c-3.946,1.393-8.279,0.318-12.294,1.47c-4.694,0.74-8.245,4.376-12.845,5.382c-3.68,0.937-7.574,0.447-11.211,1.599
		c-17.968,4.928-20.852,12.33-24.829,29.816c-9.128,39.693,3.63,36.015-8.649,60.964c-9.814,20.363-12.046,16.946-10.816,56.15
		c4.384,58.111,18.98,56.624,37.546,59.375c27.004,4.002,24.221-37.17,37.999-64.964c7.471-15.639,17.797-29.652,26.6-44.509
		c29.774,34.144,43.205,17.258,44.973,7.703c1.05-8.911,7.368-12.675,24.666-42.592c66.57-112.892,44.12-62.078,137.739-206.063
		c3.009-4.987,6.388-9.921,10.738-13.833c0.601,22.662-4.358,138.933-10.687,185.885c-9.175,98.847-9.948,91.313,0.834,131.807
		c5.795,0.396,11.383-1.436,17.109-1.9c-5.481,12.081-24.568,23.208-36.875,27.314c-12.194,3.973-34.153,20.936-12.776,30.651
		c37.238,16.923,87.599,4.783,108.32,4.353c13.015-0.27,11.803-8.483,12.299-12.731c0.919-7.877,9.447-52.859,3.126-71.296
		c-5.571-17.624,8.825-25.234,14.59-51.653c3.998-23.103,3.528-41.758,9.964-70.55l0.396-0.679c1.112-6.437,7.273-31.14,7.273-31.14
		l0.481-0.688c52.71-183.208,53.441-234.09,53.441-234.09c0.189-2.786,0.155-5.571,0.352-8.331
		c0.359-0.86,10.757-86.967,11.156-133.114C856.706,949.332,852.978,950.5,848.436,898.088z"/>
</g>
</svg>
